<svg width="32" height="33" viewBox="0 0 32 33" fill="none" xmlns="http://www.w3.org/2000/svg">
<rect y="0.34375" width="32" height="32" rx="4" fill="#EFF6FF"/>
<g clip-path="url(#clip0_3384_2345)">
<path d="M18.3386 12.0918C18.2865 12.1109 18.2344 12.1322 18.1824 12.1493C18.2515 12.3951 18.7244 13.9584 19.9044 15.1368C20.0682 15.2997 20.0682 15.563 19.9053 15.7259C19.824 15.8076 19.7169 15.8484 19.6103 15.8484C19.5036 15.8484 19.3965 15.8076 19.3161 15.7268C18.6099 15.0222 18.1328 14.2114 17.8278 13.5568C17.6678 13.9676 17.4432 14.4184 17.1311 14.8155C16.989 14.9968 16.7269 15.0289 16.5469 14.8859C16.3657 14.7439 16.334 14.4818 16.4761 14.3014C16.9994 13.6351 17.2332 12.7547 17.3182 12.3614C16.9115 12.4309 16.5099 12.4618 16.1232 12.4618C15.0957 12.4618 14.184 12.2601 13.6019 12.0922C11.3644 13.9064 8.65194 18.2768 8.66903 21.9293C8.67819 23.8905 9.74278 26.0009 12.0586 26.0009H19.884H19.8961C21.7453 25.9451 23.3499 24.0397 23.3303 21.9234C23.2974 18.2659 20.5678 13.9014 18.3386 12.0918ZM15.9999 19.6797C17.049 19.6797 17.9024 20.4059 17.9024 21.2993C17.9024 22.0705 17.2653 22.7143 16.4165 22.8764V23.3676C16.4165 23.598 16.2303 23.7843 15.9999 23.7843C15.7694 23.7843 15.5832 23.598 15.5832 23.3676V22.8764C14.734 22.7139 14.0965 22.0693 14.0965 21.2993C14.0965 21.0689 14.2832 20.8826 14.5132 20.8826C14.7432 20.8826 14.9299 21.0689 14.9299 21.2993C14.9299 21.7251 15.4199 22.0851 15.9999 22.0851C16.5794 22.0851 17.069 21.7259 17.069 21.2993C17.069 20.8734 16.5799 20.513 15.9999 20.513C14.9503 20.513 14.0965 19.7868 14.0965 18.893C14.0965 18.1222 14.734 17.478 15.5832 17.3164V16.8855C15.5832 16.6551 15.7699 16.4689 15.9999 16.4689C16.2299 16.4689 16.4165 16.6551 16.4165 16.8855V17.3164C17.2653 17.4789 17.9024 18.123 17.9024 18.893C17.9024 19.1239 17.7161 19.3097 17.4857 19.3097C17.2553 19.3097 17.069 19.1239 17.069 18.893C17.069 18.4855 16.6182 18.1034 15.9974 18.1034C15.3765 18.1034 14.9294 18.4859 14.9294 18.893C14.9299 19.3197 15.4199 19.6797 15.9999 19.6797ZM13.4257 11.1609C12.3899 10.0726 11.3953 8.51344 11.4115 7.65386C11.4299 7.26677 11.4944 6.86219 11.8369 6.70511C12.1999 6.53886 12.5336 6.79886 12.8269 7.02719C13.0194 7.17719 13.3107 7.40052 13.4574 7.37177C13.5428 7.35219 13.6553 7.21927 13.9878 6.73719C14.3207 6.25469 14.7257 5.97011 15.1419 6.00136C15.6478 6.03844 15.9094 6.51886 16.1628 6.98386C16.3611 7.32511 16.5361 7.63344 16.7844 7.87802C16.8507 7.82177 16.9578 7.69177 17.0328 7.60011C17.4419 7.10177 18.204 6.17302 19.8086 6.81511C19.9674 6.87802 20.0707 7.03177 20.0707 7.20219C20.0707 8.34552 19.2461 10.0472 18.3586 11.1843C16.3782 12.0614 14.0553 11.378 13.4257 11.1609Z" fill="#215BA4"/>
</g>
<defs>
<clipPath id="clip0_3384_2345">
<rect width="20" height="20" fill="white" transform="translate(6 6)"/>
</clipPath>
</defs>
</svg>
