<svg width="32" height="33" viewBox="0 0 32 33" fill="none" xmlns="http://www.w3.org/2000/svg">
<rect y="0.921875" width="32" height="32" rx="4" fill="#EFF6FF"/>
<g clip-path="url(#clip0_3384_2370)">
<path d="M17.3474 10.8838L15.4536 11.7522L20.7807 14.8077L19.3166 11.6148C18.5725 11.8504 17.7572 11.5475 17.3474 10.8838Z" fill="#215BA4"/>
<path d="M17.3516 10.4175C17.4573 10.3691 17.5827 10.4154 17.6312 10.5213C17.9271 11.1663 18.6926 11.45 19.3379 11.1548C19.4439 11.1067 19.5692 11.1526 19.6175 11.2586L21.3816 15.1055H22.4805L19.7191 9.08387C19.633 8.896 19.479 8.75304 19.2852 8.68108C19.0914 8.60912 18.8812 8.61708 18.6937 8.70319L13.9395 10.8833L15.004 11.4939L17.3516 10.4175Z" fill="#215BA4"/>
<path d="M11.433 13.2824L10.3872 15.1057H17.5973L13.4604 12.7329C12.9921 13.3567 12.1526 13.5842 11.433 13.2824Z" fill="#215BA4"/>
<path d="M11.1657 12.9005C11.2236 12.7994 11.3526 12.7644 11.4535 12.8225C12.0692 13.1749 12.8573 12.9617 13.2108 12.3462C13.2385 12.2976 13.2845 12.2622 13.3385 12.2475C13.3924 12.2331 13.4503 12.2403 13.4986 12.2682L18.4452 15.1054H20.4525L12.3176 10.4394C12.1384 10.3367 11.9299 10.3095 11.7304 10.3637C11.531 10.4177 11.3646 10.5461 11.2618 10.7255L8.74951 15.1054H9.901L11.1657 12.9005Z" fill="#215BA4"/>
<path d="M23.5938 15.5273H8.40625C7.97971 15.5273 7.63281 15.8744 7.63281 16.3008V24.5935C7.63281 25.0199 7.97971 25.367 8.40625 25.367H23.5938C24.0203 25.367 24.3672 25.0199 24.3672 24.5935V16.3008C24.3672 15.8744 24.0203 15.5273 23.5938 15.5273ZM23.2422 22.3435C23.2422 22.46 23.1477 22.5545 23.0312 22.5545C22.217 22.5545 21.5547 23.2168 21.5547 24.031C21.5547 24.1475 21.4602 24.242 21.3438 24.242H10.6562C10.5398 24.242 10.4453 24.1475 10.4453 24.031C10.4453 23.2168 9.78297 22.5545 8.96875 22.5545C8.8523 22.5545 8.75781 22.46 8.75781 22.3435V18.5508C8.75781 18.4343 8.8523 18.3398 8.96875 18.3398C9.78297 18.3398 10.4453 17.6775 10.4453 16.8633C10.4453 16.7468 10.5398 16.6523 10.6562 16.6523H21.3438C21.4602 16.6523 21.5547 16.7468 21.5547 16.8633C21.5547 17.6775 22.217 18.3398 23.0312 18.3398C23.1477 18.3398 23.2422 18.4343 23.2422 18.5508V22.3435Z" fill="#215BA4"/>
<path d="M21.1445 17.0742H10.8555C10.758 17.9528 10.0583 18.6525 9.17969 18.75V22.1443C10.0583 22.2418 10.758 22.9415 10.8555 23.8201H21.1445C21.242 22.9415 21.9417 22.2418 22.8203 22.1443V18.75C21.9417 18.6525 21.242 17.9529 21.1445 17.0742ZM16 22.9081C14.6431 22.9081 13.5391 21.8041 13.5391 20.4472C13.5391 19.0902 14.6431 17.9862 16 17.9862C17.3569 17.9862 18.4609 19.0902 18.4609 20.4472C18.4609 21.8041 17.3569 22.9081 16 22.9081Z" fill="#215BA4"/>
<path d="M16 22.4863C17.1261 22.4863 18.0391 21.5734 18.0391 20.4473C18.0391 19.3211 17.1261 18.4082 16 18.4082C14.8739 18.4082 13.9609 19.3211 13.9609 20.4473C13.9609 21.5734 14.8739 22.4863 16 22.4863Z" fill="#215BA4"/>
</g>
<defs>
<clipPath id="clip0_3384_2370">
<rect width="18" height="18" fill="white" transform="translate(7 8)"/>
</clipPath>
</defs>
</svg>
