<svg width="32" height="33" viewBox="0 0 32 33" fill="none" xmlns="http://www.w3.org/2000/svg">
<rect y="0.34375" width="32" height="32" rx="4" fill="#EFF6FF"/>
<path fill-rule="evenodd" clip-rule="evenodd" d="M8.70787 18.6697L11.4074 23.4395C11.5476 23.6873 11.4596 24.0048 11.2118 24.1451L10.2252 24.7034C9.97736 24.8437 9.65986 24.7556 9.51963 24.5078L6.82017 19.7381C6.67994 19.4903 6.76795 19.1728 7.01576 19.0326L8.00236 18.4742C8.25014 18.3339 8.56764 18.422 8.70787 18.6697ZM17.1925 7.22998C19.5869 7.22998 21.5279 9.17104 21.5279 11.5654C21.5279 13.9599 19.5869 15.9009 17.1925 15.9009C14.7981 15.9009 12.857 13.9598 12.857 11.5654C12.857 9.17104 14.7981 7.22998 17.1925 7.22998ZM18.9234 10.0861C18.8157 9.74463 18.5756 9.45229 18.2533 9.24986C18.0776 9.13959 17.8772 9.05568 17.6612 9.00545V8.7783C17.6612 8.51943 17.4513 8.30955 17.1925 8.30955C16.9336 8.30955 16.7237 8.51943 16.7237 8.7783V9.00498C16.4332 9.07205 16.1715 9.19975 15.9606 9.37041C15.6133 9.65143 15.3985 10.0479 15.3985 10.4931C15.3985 10.9383 15.6133 11.3347 15.9606 11.6157C16.2801 11.8742 16.716 12.0342 17.1925 12.0342C17.4479 12.0342 17.6747 12.1143 17.8348 12.2439C17.9671 12.351 18.049 12.4907 18.049 12.6378C18.049 12.7848 17.9671 12.9246 17.8348 13.0317C17.6747 13.1612 17.4479 13.2414 17.1925 13.2414C16.9937 13.2414 16.8124 13.193 16.6658 13.1106C16.53 13.0342 16.4272 12.9319 16.3745 12.817C16.2673 12.5824 15.9902 12.4791 15.7556 12.5863C15.521 12.6935 15.4177 12.9706 15.5249 13.2052C15.6621 13.5043 15.9028 13.7556 16.208 13.9272C16.3642 14.0151 16.538 14.0828 16.7237 14.1258V14.3526C16.7237 14.6115 16.9336 14.8213 17.1924 14.8213C17.4513 14.8213 17.6612 14.6115 17.6612 14.3526V14.1259C17.9518 14.0588 18.2134 13.9312 18.4244 13.7605C18.7717 13.4795 18.9865 13.083 18.9865 12.6378C18.9865 12.1926 18.7717 11.7962 18.4244 11.5152C18.1048 11.2566 17.6689 11.0967 17.1924 11.0967C16.937 11.0967 16.7103 11.0165 16.5501 10.887C16.4178 10.7799 16.3359 10.6401 16.3359 10.4931C16.3359 10.3461 16.4178 10.2063 16.5501 10.0992C16.7103 9.96963 16.937 9.88947 17.1924 9.88947C17.4091 9.88947 17.604 9.946 17.7552 10.0409C17.8912 10.1263 17.9897 10.2409 18.0298 10.368C18.1077 10.6148 18.3708 10.7517 18.6176 10.6738C18.8644 10.596 19.0013 10.3328 18.9234 10.0861ZM9.83123 18.7513L11.8787 22.369L12.0677 22.2599L16.6962 23.5001C17.362 23.6785 18.0042 23.5942 18.5911 23.2329L24.8094 19.5307C25.7181 18.9712 25.3167 16.5222 22.5833 18.1141L19.23 19.935C18.7389 20.221 18.2236 20.2978 17.6624 20.2081C17.1947 20.1332 16.0758 19.8203 14.9576 19.5207C14.7547 19.4663 14.6343 19.2578 14.6887 19.0548C14.743 18.8519 14.9516 18.7315 15.1545 18.7859L18.3133 19.6322C18.3445 19.569 18.3701 19.5004 18.3899 19.4269C18.5313 18.899 18.2072 18.3784 17.6872 18.2098C16.2865 17.9572 14.9129 17.3715 14.0718 17.0987C13.3174 16.8539 12.6194 17.1359 11.933 17.5336L9.83123 18.7513Z" fill="#215BA4"/>
</svg>
