<svg width="32" height="33" viewBox="0 0 32 33" fill="none" xmlns="http://www.w3.org/2000/svg">
<rect y="0.5" width="32" height="32" rx="4" fill="#EFF6FF"/>
<g clip-path="url(#clip0_3384_2357)">
<path d="M19.3725 10.1302H18.1299C18.1299 8.9556 17.1743 8 15.9997 8C14.8252 8 13.8696 8.9556 13.8696 10.1302H12.627V12.2604H19.3725V10.1302ZM14.9346 10.1302C14.9346 9.54289 15.4124 9.06509 15.9997 9.06509C16.587 9.06509 17.0648 9.54289 17.0648 10.1302H14.9346Z" fill="#215BA4"/>
<path d="M20.4378 11.1953V13.3255H11.562V11.1953H9.60938V26H22.3904V11.1953H20.4378ZM18.6626 17.0178C18.9567 17.0178 19.1952 17.2562 19.1952 17.5503C19.1952 17.8444 18.9567 18.0829 18.6626 18.0829C18.3685 18.0829 18.1301 17.8444 18.1301 17.5503C18.1301 17.2562 18.3685 17.0178 18.6626 17.0178ZM16.5325 15.9527C16.8266 15.9527 17.065 16.1911 17.065 16.4853C17.065 16.7794 16.8266 17.0178 16.5325 17.0178C16.2383 17.0178 15.9999 16.7794 15.9999 16.4853C15.9999 16.1911 16.2383 15.9527 16.5325 15.9527ZM14.4023 16.6628C14.6964 16.6628 14.9348 16.9012 14.9348 17.1953C14.9348 17.4894 14.6964 17.7279 14.4023 17.7279C14.1082 17.7279 13.8697 17.4894 13.8697 17.1953C13.8697 16.9012 14.1082 16.6628 14.4023 16.6628ZM20.2603 22.0947H11.7396V15.9527H12.8046V21.0296H13.8697V18.7929H14.9348V21.0296H15.9999V18.0829H17.065V21.0296H18.1301V19.148H19.1952V21.0296H20.2603V22.0947Z" fill="#215BA4"/>
</g>
<defs>
<clipPath id="clip0_3384_2357">
<rect width="18" height="18" fill="white" transform="translate(7 8)"/>
</clipPath>
</defs>
</svg>
