<svg width="32" height="33" viewBox="0 0 32 33" fill="none" xmlns="http://www.w3.org/2000/svg">
<rect y="0.921875" width="32" height="32" rx="4" fill="#EFF6FF"/>
<path d="M13.207 17C13.207 14.5853 14.5464 12.4778 16.5211 11.3807C16.0545 10.6745 15.5835 10.0102 15.1478 9.44636C14.1125 8.10649 13.8173 8 13.539 8C13.2608 8 12.9656 8.10649 11.9303 9.4464C11.2751 10.2943 10.5399 11.369 9.8601 12.4725C8.79195 14.2064 7 17.4199 7 19.461C7 23.0666 9.9334 26 13.539 26C15.6814 26 17.5865 24.9643 18.7799 23.3674C15.6385 22.9498 13.207 20.2537 13.207 17Z" fill="#215BA4"/>
<path d="M19.6309 11.6309C16.6703 11.6309 14.2617 14.0394 14.2617 17C14.2617 19.9606 16.6703 22.3692 19.6309 22.3692C22.5915 22.3692 25.0001 19.9606 25.0001 17C25.0001 14.0394 22.5915 11.6309 19.6309 11.6309ZM20.8639 19.4454C20.6733 19.5912 20.4439 19.6964 20.1934 19.7561V20.1995C20.1934 20.4907 19.9573 20.7268 19.6661 20.7268C19.3748 20.7268 19.1387 20.4907 19.1387 20.1995V19.7398C18.4435 19.5571 17.8438 19.035 17.8438 18.2159C17.8438 17.9247 18.0799 17.6886 18.3711 17.6886C18.6624 17.6886 18.8985 17.9247 18.8985 18.2159C18.8985 18.6085 19.3876 18.757 19.6959 18.7584H19.7006C19.8707 18.7584 20.3998 18.7168 20.4043 18.2064C20.4073 17.8683 20.1749 17.7343 19.4268 17.4777C19.4009 17.4688 19.318 17.4423 19.3024 17.4368C18.8124 17.2637 17.7927 16.9035 17.8029 15.7669C17.8074 15.2642 18.0187 14.8275 18.3979 14.5374C18.5885 14.3916 18.8179 14.2864 19.0684 14.2267V13.8006C19.0684 13.5094 19.3045 13.2733 19.5958 13.2733C19.887 13.2733 20.1231 13.5094 20.1231 13.8006V14.243C20.8183 14.4257 21.418 14.9478 21.418 15.7669C21.418 16.0582 21.1819 16.2943 20.8906 16.2943C20.5994 16.2943 20.3633 16.0582 20.3633 15.7669C20.3633 15.3743 19.8742 15.2258 19.5658 15.2244C19.5644 15.2244 19.5628 15.2244 19.5612 15.2244C19.3911 15.2244 18.8621 15.266 18.8575 15.7764C18.8552 16.0294 18.9597 16.1859 19.5637 16.4096C19.5692 16.4114 19.7057 16.4583 19.769 16.48C20.1341 16.6053 20.5116 16.7348 20.827 16.9646C21.251 17.2734 21.4635 17.6944 21.4589 18.2158C21.4544 18.7187 21.2431 19.1553 20.8639 19.4454Z" fill="#215BA4"/>
</svg>
