<svg width="32" height="33" viewBox="0 0 32 33" fill="none" xmlns="http://www.w3.org/2000/svg">
<rect y="0.5" width="32" height="32" rx="4" fill="#EFF6FF"/>
<path d="M18.1665 11.2554H13.1665C12.7915 11.2554 12.5415 11.0054 12.5415 10.6304V9.38037C12.5415 8.31787 13.354 7.50537 14.4165 7.50537H16.9165C17.979 7.50537 18.7915 8.31787 18.7915 9.38037V10.6304C18.7915 11.0054 18.5415 11.2554 18.1665 11.2554Z" fill="#215BA4"/>
<path d="M15.6665 16.2554V15.0054C14.604 15.0054 13.7915 15.8179 13.7915 16.8804C13.7915 17.9429 14.604 18.7554 15.6665 18.7554C16.729 18.7554 17.5415 17.9429 17.5415 16.8804H16.2915C15.9165 16.8804 15.6665 16.6304 15.6665 16.2554Z" fill="#215BA4"/>
<path d="M21.9165 8.75537H19.979C20.0415 8.94287 20.0415 9.19287 20.0415 9.38037V10.6304C20.0415 11.6929 19.229 12.5054 18.1665 12.5054H13.1665C12.104 12.5054 11.2915 11.6929 11.2915 10.6304V9.38037C11.2915 9.19287 11.2915 8.94287 11.354 8.75537H9.4165C9.0415 8.75537 8.7915 9.00537 8.7915 9.38037V24.3804C8.7915 24.7554 9.0415 25.0054 9.4165 25.0054H21.9165C22.2915 25.0054 22.5415 24.7554 22.5415 24.3804V9.38037C22.5415 9.00537 22.2915 8.75537 21.9165 8.75537ZM13.1665 23.7554H11.9165C11.5415 23.7554 11.2915 23.5054 11.2915 23.1304C11.2915 22.7554 11.5415 22.5054 11.9165 22.5054H13.1665C13.5415 22.5054 13.7915 22.7554 13.7915 23.1304C13.7915 23.5054 13.5415 23.7554 13.1665 23.7554ZM15.6665 21.8804H11.9165C11.5415 21.8804 11.2915 21.6304 11.2915 21.2554C11.2915 20.8804 11.5415 20.6304 11.9165 20.6304H15.6665C16.0415 20.6304 16.2915 20.8804 16.2915 21.2554C16.2915 21.6304 16.0415 21.8804 15.6665 21.8804ZM18.7915 16.8804C18.7915 18.6304 17.4165 20.0054 15.6665 20.0054C13.9165 20.0054 12.5415 18.6304 12.5415 16.8804C12.5415 15.1304 13.9165 13.7554 15.6665 13.7554C15.6665 13.3804 15.9165 13.1304 16.2915 13.1304C18.0415 13.1304 19.4165 14.5054 19.4165 16.2554C19.4165 16.6304 19.1665 16.8804 18.7915 16.8804Z" fill="#215BA4"/>
<path d="M16.9165 14.5054V15.6304H18.0415C17.854 15.0679 17.479 14.6929 16.9165 14.5054Z" fill="#215BA4"/>
</svg>
