<svg width="41" height="41" viewBox="0 0 41 41" fill="none" xmlns="http://www.w3.org/2000/svg">
<rect width="41" height="41" rx="20.5" fill="#F0F0F0" fill-opacity="0.2"/>
<path d="M27.5 29.5V13.5C27.5 12.9696 27.2893 12.4609 26.9142 12.0858C26.5391 11.7107 26.0304 11.5 25.5 11.5H15.5C14.9696 11.5 14.4609 11.7107 14.0858 12.0858C13.7107 12.4609 13.5 12.9696 13.5 13.5V29.5M27.5 29.5H13.5M27.5 29.5H29.5M27.5 29.5H22.5M13.5 29.5H11.5M13.5 29.5H18.5M22.5 29.5V24.5C22.5 24.2348 22.3946 23.9804 22.2071 23.7929C22.0196 23.6054 21.7652 23.5 21.5 23.5H19.5C19.2348 23.5 18.9804 23.6054 18.7929 23.7929C18.6054 23.9804 18.5 24.2348 18.5 24.5V29.5M22.5 29.5H18.5M17.5 15.5H18.5M17.5 19.5H18.5M22.5 15.5H23.5M22.5 19.5H23.5" stroke="#F8F9FA" stroke-width="2" stroke-linecap="round" stroke-linejoin="round"/>
</svg>
