<svg width="34" height="33" viewBox="0 0 34 33" fill="none" xmlns="http://www.w3.org/2000/svg">
<rect x="0.666504" width="33" height="33" rx="4" fill="#F97316"/>
<g clip-path="url(#clip0_3373_2376)">
<path d="M25.7629 17.3461V11.2112C25.7629 9.96902 24.7525 8.95836 23.5102 8.95836H23.2367V8.49328C23.2367 7.2509 22.2262 6.24023 20.9839 6.24023H10.1595C8.91725 6.24023 7.90674 7.2509 7.90674 8.49328V20.1322C7.90674 21.3746 8.91725 22.3852 10.1595 22.3852H18.0601C18.6653 24.3377 20.4878 25.7598 22.6364 25.7598C25.2774 25.7598 27.4261 23.6111 27.4261 20.97C27.4261 19.5232 26.7802 18.2253 25.7629 17.3461ZM8.53639 13.87C8.94748 14.298 9.52357 14.5647 10.1595 14.5647H12.5847C13.2958 14.5647 13.8742 15.1431 13.8742 15.8541C13.8742 16.565 13.2958 17.1436 12.5847 17.1436L10.1595 17.1438C9.30416 17.1438 8.59256 16.4754 8.53959 15.6217C8.53904 15.6148 8.53713 15.6086 8.53639 15.6018V13.87ZM10.1595 21.7555C9.26439 21.7555 8.53639 21.0274 8.53639 20.1322V17.0775C8.94787 17.5059 9.52436 17.7735 10.1595 17.7735L12.5847 17.7732C13.6429 17.7732 14.5038 16.9123 14.5038 15.854C14.5038 14.7958 13.6429 13.935 12.5847 13.935H10.1595C9.29971 13.935 8.58791 13.263 8.53908 12.4048C8.53885 12.3991 8.53693 12.3936 8.53643 12.3879V8.49328C8.53643 7.59812 9.26443 6.86996 10.1596 6.86996H20.9839C21.879 6.86996 22.6071 7.59812 22.6071 8.49328V8.95836H9.96158C9.78756 8.95836 9.64662 9.09934 9.64662 9.27324C9.64662 9.44719 9.78752 9.58812 9.96158 9.58812H23.5102C24.4052 9.58812 25.1333 10.3162 25.1333 11.2112V16.8846C24.406 16.4383 23.5508 16.1805 22.6365 16.1805C19.9955 16.1805 17.8467 18.3291 17.8467 20.97C17.8467 21.2377 17.8699 21.4998 17.9124 21.7555H10.1595ZM22.6364 25.1301C20.3426 25.1301 18.4765 23.2639 18.4765 20.97C18.4765 18.6762 20.3426 16.81 22.6364 16.81C24.9303 16.81 26.7963 18.6762 26.7963 20.97C26.7964 23.2639 24.9303 25.1301 22.6364 25.1301ZM22.9512 17.7716V20.97C22.9512 21.144 22.8103 21.285 22.6364 21.285H20.6028C20.4288 21.285 20.2879 21.144 20.2879 20.97C20.2879 20.7963 20.4287 20.6552 20.6028 20.6552H22.3216V17.7716C22.3216 17.5978 22.4624 17.4568 22.6364 17.4568C22.8103 17.4568 22.9512 17.5977 22.9512 17.7716Z" fill="white"/>
</g>
<defs>
<clipPath id="clip0_3373_2376">
<rect width="20" height="20" fill="white" transform="translate(7.6665 6)"/>
</clipPath>
</defs>
</svg>
