<svg width="34" height="33" viewBox="0 0 34 33" fill="none" xmlns="http://www.w3.org/2000/svg">
<rect x="0.333008" width="33" height="33" rx="4" fill="#EAB308"/>
<g clip-path="url(#clip0_3373_2387)">
<path d="M25.4295 17.3461V11.2112C25.4295 9.96902 24.419 8.95836 23.1767 8.95836H22.9032V8.49328C22.9032 7.2509 21.8927 6.24023 20.6504 6.24023H9.82602C8.58375 6.24023 7.57324 7.2509 7.57324 8.49328V20.1322C7.57324 21.3746 8.58375 22.3852 9.82602 22.3852H17.7266C18.3318 24.3377 20.1543 25.7598 22.3029 25.7598C24.9439 25.7598 27.0926 23.6111 27.0926 20.97C27.0926 19.5232 26.4467 18.2253 25.4295 17.3461ZM8.20289 13.87C8.61398 14.298 9.19008 14.5647 9.82602 14.5647H12.2512C12.9623 14.5647 13.5407 15.1431 13.5407 15.8541C13.5407 16.565 12.9623 17.1436 12.2512 17.1436L9.82602 17.1438C8.97066 17.1438 8.25906 16.4754 8.20609 15.6217C8.20555 15.6148 8.20363 15.6086 8.20289 15.6018V13.87ZM9.82602 21.7555C8.9309 21.7555 8.20289 21.0274 8.20289 20.1322V17.0775C8.61437 17.5059 9.19086 17.7735 9.82602 17.7735L12.2512 17.7732C13.3094 17.7732 14.1703 16.9123 14.1703 15.854C14.1703 14.7958 13.3094 13.935 12.2512 13.935H9.82602C8.96621 13.935 8.25441 13.263 8.20559 12.4048C8.20535 12.3991 8.20344 12.3936 8.20293 12.3879V8.49328C8.20293 7.59812 8.93094 6.86996 9.82605 6.86996H20.6504C21.5455 6.86996 22.2736 7.59812 22.2736 8.49328V8.95836H9.62809C9.45406 8.95836 9.31313 9.09934 9.31313 9.27324C9.31313 9.44719 9.45402 9.58812 9.62809 9.58812H23.1767C24.0717 9.58812 24.7998 10.3162 24.7998 11.2112V16.8846C24.0725 16.4383 23.2173 16.1805 22.303 16.1805C19.662 16.1805 17.5132 18.3291 17.5132 20.97C17.5132 21.2377 17.5364 21.4998 17.5789 21.7555H9.82602ZM22.3029 25.1301C20.0091 25.1301 18.143 23.2639 18.143 20.97C18.143 18.6762 20.0091 16.81 22.3029 16.81C24.5968 16.81 26.4629 18.6762 26.4629 20.97C26.4629 23.2639 24.5968 25.1301 22.3029 25.1301ZM22.6177 17.7716V20.97C22.6177 21.144 22.4768 21.285 22.3029 21.285H20.2693C20.0953 21.285 19.9545 21.144 19.9545 20.97C19.9545 20.7963 20.0952 20.6552 20.2693 20.6552H21.9881V17.7716C21.9881 17.5978 22.1289 17.4568 22.3029 17.4568C22.4768 17.4568 22.6177 17.5977 22.6177 17.7716Z" fill="white"/>
</g>
<defs>
<clipPath id="clip0_3373_2387">
<rect width="20" height="20" fill="white" transform="translate(7.33301 6)"/>
</clipPath>
</defs>
</svg>
