<svg width="33" height="34" viewBox="0 0 33 34" fill="none" xmlns="http://www.w3.org/2000/svg">
<rect y="0.5" width="33" height="33" rx="4" fill="#DC2626"/>
<g clip-path="url(#clip0_3373_2327)">
<path d="M24.4469 19.5164V19.0047C24.4469 18.4277 23.9781 17.9582 23.4016 17.9582H15.8699C15.7379 17.9582 15.609 17.9836 15.4879 18.0316C14.6469 17.3117 13.5555 16.8762 12.3641 16.8762C9.71133 16.8762 7.55273 19.0348 7.55273 21.6883C7.55312 24.3414 9.71133 26.5 12.3641 26.5C12.8031 26.5 13.2281 26.4406 13.6324 26.3301C13.8016 26.4406 13.9984 26.5 14.202 26.5H21.7336C22.3102 26.5 22.7789 26.0305 22.7789 25.4535V24.9418C22.7789 24.7918 22.7469 24.6492 22.6898 24.5199H23.4012C23.9773 24.5199 24.4465 24.0512 24.4465 23.4746V22.9621C24.4465 22.3859 23.9777 21.9168 23.4012 21.9168H22.6902C22.7473 21.7879 22.7789 21.6457 22.7789 21.4961V20.9836C22.7789 20.834 22.7469 20.6918 22.6902 20.5629H23.4012C23.9781 20.5625 24.4469 20.0934 24.4469 19.5164ZM23.8223 19.0047V19.5164C23.8223 19.7492 23.6336 19.9383 23.4016 19.9383H16.8457C16.6508 19.441 16.3754 18.984 16.0359 18.5828H23.4016C23.6336 18.5828 23.8223 18.7719 23.8223 19.0047ZM8.17773 21.6887C8.17773 19.3797 10.0559 17.5008 12.3645 17.5008C14.673 17.5008 16.5508 19.3797 16.5508 21.6887C16.5508 23.9973 14.6727 25.8754 12.3641 25.8754C10.0555 25.8754 8.17773 23.9973 8.17773 21.6887ZM22.1547 24.9418V25.4535C22.1547 25.6863 21.966 25.8754 21.734 25.8754H14.7324C15.3301 25.5359 15.848 25.0727 16.2516 24.5199H21.734C21.966 24.5199 22.1547 24.7094 22.1547 24.9418ZM23.8223 22.9621V23.4746C23.8223 23.7066 23.6336 23.8953 23.4016 23.8953H16.6387C16.8562 23.4758 17.0137 23.0207 17.1 22.541H23.402C23.6336 22.5414 23.8223 22.7301 23.8223 22.9621ZM22.1547 20.9832V21.4957C22.1547 21.7277 21.966 21.9164 21.734 21.9164H17.1699C17.1734 21.8406 17.1754 21.7648 17.1754 21.6883C17.1754 21.3004 17.1289 20.9234 17.0422 20.5621H21.7344C21.966 20.5625 22.1547 20.7516 22.1547 20.9832ZM14.877 19.1758C14.2078 18.5066 13.3156 18.1383 12.3637 18.1383C11.4117 18.1383 10.5195 18.5066 9.85117 19.1758C9.18281 19.8441 8.81445 20.7363 8.81445 21.6879C8.81445 22.6395 9.18242 23.5316 9.85078 24.2C10.5191 24.8691 11.4113 25.2375 12.3633 25.2375C13.3152 25.2375 14.2078 24.8691 14.8766 24.2C15.5449 23.5316 15.9133 22.6395 15.9133 21.6875C15.9137 20.7363 15.5457 19.8441 14.877 19.1758ZM14.4355 23.759C13.8844 24.3102 13.1488 24.6133 12.3637 24.6133C11.5789 24.6133 10.8434 24.3098 10.293 23.759C9.74258 23.2086 9.43945 22.473 9.43945 21.6883C9.43945 20.9035 9.74258 20.168 10.293 19.6176C10.8434 19.0668 11.5789 18.7633 12.3637 18.7633C13.1488 18.7633 13.8844 19.0668 14.4355 19.6176C14.9859 20.168 15.2891 20.9035 15.2891 21.6883C15.2891 22.473 14.9859 23.2086 14.4355 23.759ZM13.3371 21.7605C13.5527 21.9711 13.6555 22.2449 13.6277 22.5328C13.5992 22.8281 13.4293 23.1043 13.1734 23.2723C13.025 23.3695 12.8551 23.4328 12.6766 23.4617V23.8094C12.6766 23.9816 12.5367 24.1215 12.3645 24.1215C12.1922 24.1215 12.0523 23.9816 12.0523 23.8094V23.4223C12.0477 23.4211 12.043 23.4199 12.0387 23.4188C11.627 23.2926 11.3008 22.9855 11.1199 22.5539C11.0531 22.3949 11.1281 22.2117 11.2875 22.1453C11.4465 22.0785 11.6297 22.1535 11.6961 22.3129C11.8344 22.643 12.0582 22.7719 12.2215 22.8219C12.432 22.8863 12.6656 22.859 12.8316 22.7504C12.9309 22.6855 12.9961 22.5816 13.0066 22.473C13.016 22.3762 12.9797 22.2848 12.902 22.2086C12.8219 22.1309 12.6227 22.084 12.4305 22.0387C12.1148 21.9645 11.7574 21.8801 11.4887 21.6039C11.2617 21.3711 11.1699 21.0215 11.2492 20.6914C11.3305 20.352 11.573 20.091 11.9148 19.9754C11.9602 19.9602 12.0062 19.9469 12.0527 19.9363V19.568C12.0527 19.3953 12.1926 19.2559 12.3648 19.2559C12.5371 19.2559 12.677 19.3957 12.677 19.568V19.9242C12.8121 19.95 12.9414 19.9945 13.057 20.0574C13.3262 20.2047 13.507 20.4371 13.5793 20.7297C13.6207 20.8973 13.5184 21.0664 13.3512 21.1078C13.184 21.1492 13.0145 21.0469 12.973 20.8797C12.943 20.7578 12.8727 20.6684 12.7574 20.6055C12.584 20.5105 12.3258 20.4949 12.1156 20.5668C11.9406 20.6262 11.8781 20.7465 11.8566 20.8371C11.8273 20.9586 11.8586 21.0887 11.9363 21.168C12.0781 21.3137 12.3187 21.3703 12.5738 21.4305C12.848 21.4945 13.1324 21.5617 13.3371 21.7605ZM11.1195 12.7355L11.7238 12.9313C11.8219 13.2945 11.9672 13.6445 12.1551 13.9723L11.866 14.541C11.7555 14.7594 11.7977 15.0223 11.9703 15.1949L12.575 15.7996C12.7488 15.9734 13.0125 16.0152 13.2309 15.9035L13.7977 15.6148C14.1262 15.8035 14.477 15.9484 14.8387 16.0461L15.0355 16.65C15.1109 16.884 15.3266 17.0414 15.5719 17.0414H16.4277C16.673 17.0414 16.8883 16.8844 16.9637 16.6508L17.1609 16.0457C17.525 15.9473 17.875 15.8023 18.202 15.6148L18.7684 15.9031C18.9871 16.0148 19.2508 15.9734 19.4246 15.7992L20.0293 15.1945C20.2023 15.0219 20.2441 14.759 20.1332 14.5395L19.8441 13.9727C20.0324 13.6445 20.1777 13.2945 20.2762 12.9309L20.8812 12.7348C21.1141 12.6586 21.2703 12.443 21.2703 12.1977V11.343C21.2703 11.0977 21.1141 10.8816 20.8809 10.8059L20.2758 10.6086C20.1773 10.2453 20.0328 9.8957 19.8441 9.5668L20.1336 9C20.2441 8.78125 20.2023 8.51797 20.0293 8.34492L19.4246 7.74023C19.2523 7.56797 18.9895 7.52578 18.7684 7.63633L18.2031 7.92539C17.8758 7.7375 17.5258 7.59258 17.1613 7.49375L16.9641 6.88828C16.8879 6.65664 16.6727 6.5 16.4281 6.5H15.5723C15.3277 6.5 15.1121 6.65625 15.0363 6.88945L14.8395 7.49414C14.477 7.59219 14.1273 7.73711 13.7977 7.92617L13.2297 7.63594C13.0109 7.52656 12.748 7.56875 12.5758 7.74102L11.9711 8.3457C11.798 8.51875 11.7562 8.78203 11.8672 9.00156L12.1559 9.56836C11.9684 9.89531 11.8234 10.2449 11.7246 10.6094L11.1203 10.8063C10.8871 10.8816 10.7301 11.0977 10.7301 11.3438V12.1984C10.7301 12.4441 10.8867 12.6602 11.1195 12.7355ZM11.3543 11.3863L11.9453 11.1938C12.1309 11.1352 12.2707 10.9879 12.3195 10.8004C12.4062 10.4691 12.5383 10.1508 12.7117 9.85352C12.8109 9.68281 12.8156 9.48516 12.7266 9.31367L12.443 8.75664L12.9863 8.21328L13.5441 8.49844C13.7199 8.5875 13.9172 8.58086 14.0844 8.48203C14.3813 8.30859 14.6988 8.17695 15.0285 8.09063C15.2176 8.0418 15.3609 7.90664 15.423 7.71914L15.6164 7.12539H16.384L16.5766 7.71641C16.6352 7.90195 16.7824 8.0418 16.9699 8.09063C17.3012 8.17734 17.6195 8.30938 17.9141 8.48125C18.0828 8.58164 18.2805 8.58789 18.457 8.49844L19.0137 8.21367L19.557 8.75703L19.2719 9.31484C19.1828 9.49062 19.1895 9.68789 19.2883 9.85469C19.4613 10.1512 19.593 10.4691 19.6797 10.8C19.7285 10.9883 19.8684 11.1355 20.0512 11.1934L20.6449 11.3867V12.1555L20.05 12.348C19.8637 12.4094 19.7285 12.5531 19.6793 12.7414C19.5926 13.0715 19.4609 13.3895 19.2887 13.6844C19.1883 13.8531 19.182 14.0508 19.2711 14.2273L19.5555 14.7848L19.0125 15.3277L18.4547 15.0437C18.2809 14.9555 18.0844 14.9609 17.9145 15.0594C17.618 15.2324 17.3 15.3641 16.9656 15.452C16.7762 15.5035 16.6336 15.6398 16.5758 15.8227L16.382 16.4176H15.6152L15.4211 15.8215C15.3605 15.6371 15.2176 15.502 15.0277 15.4508C14.6977 15.3645 14.3797 15.2324 14.082 15.0586C13.9133 14.9609 13.7168 14.9555 13.5422 15.0437L12.9852 15.3273L12.4422 14.7844L12.7242 14.2293C12.8148 14.0555 12.8098 13.8578 12.7102 13.6863C12.5367 13.3895 12.4051 13.0715 12.3187 12.7422C12.2695 12.5531 12.1344 12.4094 11.9469 12.3477L11.3535 12.1555V11.3863H11.3543ZM15.9996 14.3109C17.4008 14.3109 18.541 13.1715 18.541 11.7707C18.541 10.3699 17.4012 9.23047 15.9996 9.23047C14.5988 9.23047 13.4594 10.3699 13.4594 11.7707C13.4594 13.1715 14.5988 14.3109 15.9996 14.3109ZM15.9996 9.85508C17.0566 9.85508 17.9164 10.7145 17.9164 11.7707C17.9164 12.827 17.0566 13.6863 15.9996 13.6863C14.9434 13.6863 14.084 12.827 14.084 11.7707C14.084 10.7145 14.9434 9.85508 15.9996 9.85508Z" fill="white"/>
</g>
<defs>
<clipPath id="clip0_3373_2327">
<rect width="20" height="20" fill="white" transform="translate(6 6.5)"/>
</clipPath>
</defs>
</svg>
