<svg width="34" height="33" viewBox="0 0 34 33" fill="none" xmlns="http://www.w3.org/2000/svg">
<rect x="0.666504" width="33" height="33" rx="4" fill="#16A34A"/>
<g clip-path="url(#clip0_3373_2338)">
<path d="M24.4878 17.3331H24.6698C24.7582 17.3331 24.843 17.298 24.9055 17.2355C24.9681 17.173 25.0032 17.0882 25.0032 16.9998C25.0032 16.9114 24.9681 16.8266 24.9055 16.7641C24.843 16.7016 24.7582 16.6665 24.6698 16.6665H24.0138L24.6158 15.2621C24.6592 15.1607 24.6768 15.0501 24.667 14.9403C24.6571 14.8304 24.6202 14.7247 24.5594 14.6326C24.4986 14.5406 24.416 14.465 24.3189 14.4127C24.2217 14.3605 24.1131 14.3331 24.0028 14.3331H22.4665L22.3958 14.1215C22.3515 13.9889 22.2665 13.8736 22.153 13.792C22.0396 13.7103 21.9033 13.6664 21.7635 13.6665H21.0038C20.8927 13.6664 20.7834 13.6942 20.6857 13.7471C20.588 13.8001 20.5051 13.8767 20.4446 13.9699C20.3841 14.063 20.3478 14.1699 20.339 14.2806C20.3303 14.3914 20.3493 14.5026 20.3945 14.6041L21.3112 16.6665H20.6698C20.5814 16.6665 20.4966 16.7016 20.4341 16.7641C20.3716 16.8266 20.3365 16.9114 20.3365 16.9998C20.3365 17.0882 20.3716 17.173 20.4341 17.2355C20.4966 17.298 20.5814 17.3331 20.6698 17.3331H20.8628C20.1184 18.0064 19.5398 18.8428 19.1722 19.7768C18.6077 19.4853 17.9817 19.3332 17.3465 19.3331H17.1798C16.8733 18.991 16.455 18.7692 15.9998 18.7075V18.1488C16.61 17.815 17.1265 17.3332 17.5017 16.7475C17.8768 16.1619 18.0987 15.4913 18.1468 14.7975C18.332 14.7437 18.5038 14.6519 18.6515 14.528C18.7992 14.4041 18.9194 14.2508 19.0045 14.0778C19.3332 13.4211 19.3332 12.9195 19.3332 12.1601V10.2895C19.3332 9.02279 18.2998 7.96246 16.9332 7.71879L17.3358 7.13313C17.4056 7.02149 17.4439 6.89309 17.4467 6.76149C17.4495 6.6299 17.4167 6.49998 17.3518 6.38546C17.2854 6.26801 17.1888 6.17038 17.0721 6.1026C16.9554 6.03482 16.8228 5.99933 16.6878 5.99979H13.3748C12.1418 5.98626 10.9536 6.46229 10.071 7.32348C9.18837 8.18468 8.68329 9.36075 8.6665 10.5938V12.1605C8.6665 12.9198 8.6665 13.4215 8.99617 14.0798C9.08117 14.2525 9.20127 14.4055 9.34877 14.5291C9.49628 14.6528 9.66796 14.7443 9.85284 14.7978C9.90014 15.4925 10.1216 16.164 10.4969 16.7506C10.8721 17.3371 11.389 17.8197 11.9998 18.1538V18.7075C11.5444 18.7691 11.1259 18.9909 10.8192 19.3331H10.6525C9.59564 19.3344 8.58245 19.7549 7.8352 20.5023C7.08795 21.2497 6.66765 22.2629 6.6665 23.3198L6.6665 25.3631C6.66659 25.532 6.7337 25.6938 6.85308 25.8132C6.97246 25.9326 7.13434 25.9997 7.30317 25.9998H20.6965C20.7991 25.9997 20.9 25.9747 20.9909 25.9271C21.0817 25.8796 21.1597 25.8107 21.2182 25.7265C21.6741 25.9034 22.1584 25.9961 22.6475 25.9998H22.6732C23.7216 26.0035 24.7295 25.5948 25.4792 24.8618C25.853 24.5005 26.1506 24.068 26.3545 23.5898C26.5585 23.1115 26.6645 22.5973 26.6665 22.0775C26.5934 20.2708 25.8105 18.5659 24.4878 17.3331ZM21.0038 14.3331H21.7635L21.9098 14.7698L22.1298 15.4365C22.1575 15.5204 22.2174 15.59 22.2964 15.6298C22.3753 15.6696 22.4669 15.6765 22.5508 15.6488C22.6348 15.6211 22.7044 15.5612 22.7442 15.4823C22.784 15.4033 22.7908 15.3118 22.7632 15.2278L22.6875 14.9998H24.0035L23.2885 16.6665H22.0405L21.0038 14.3331ZM13.9998 20.4058C14.1731 20.4119 14.3434 20.4532 14.5002 20.5272C14.6571 20.6011 14.7972 20.7063 14.9122 20.8361L14.5082 21.3331H13.4915L13.0875 20.8381C13.2035 20.7094 13.3439 20.605 13.5005 20.5308C13.657 20.4566 13.8268 20.4141 13.9998 20.4058ZM12.4115 21.6111C12.4399 21.6188 12.4691 21.6227 12.4985 21.6228C12.5492 21.623 12.5993 21.6115 12.6448 21.589C12.6902 21.5666 12.7299 21.5339 12.7605 21.4935L12.9782 21.7601L12.4208 25.1128C11.7638 24.4441 11.4512 22.6571 11.3595 21.0601C11.6718 21.31 12.0295 21.4971 12.4128 21.6111H12.4115ZM13.6155 21.9998H14.3842L14.9398 25.3331H13.0598L13.6155 21.9998ZM15.0202 21.7605L15.2378 21.4938C15.2777 21.5459 15.3322 21.5849 15.3944 21.6058C15.4566 21.6268 15.5236 21.6288 15.5868 21.6115C15.9673 21.4984 16.3225 21.3134 16.6332 21.0665C16.5435 22.4641 16.2645 24.2501 15.5665 25.0511L15.0202 21.7605ZM16.6632 19.7511C16.6148 20.3511 16.0578 20.6965 15.7038 20.8568C15.5646 20.538 15.3368 20.2659 15.0475 20.0728C15.3825 19.918 15.6668 19.6715 15.8675 19.3618C16.1696 19.3963 16.4505 19.5338 16.6632 19.7511ZM13.3748 6.66646H16.6878C16.7044 6.66564 16.7208 6.66945 16.7353 6.67746C16.7498 6.68547 16.7617 6.69736 16.7698 6.71179C16.7982 6.76113 16.7765 6.77113 16.7775 6.76979L16.1582 7.66646H15.6665C15.5781 7.66646 15.4933 7.70158 15.4308 7.76409C15.3683 7.8266 15.3332 7.91139 15.3332 7.99979C15.3332 8.0882 15.3683 8.17298 15.4308 8.23549C15.4933 8.29801 15.5781 8.33313 15.6665 8.33313H16.3332C17.4552 8.33313 18.6665 9.08113 18.6665 10.2895V11.0611C18.5321 11.0104 18.388 10.9908 18.2449 11.0036C18.1018 11.0164 17.9634 11.0614 17.8402 11.1351C17.759 11.0159 17.652 10.9166 17.5271 10.8445C17.4022 10.7725 17.2626 10.7295 17.1188 10.7188C15.9928 10.6288 15.1612 10.3541 14.6478 9.90379C14.472 9.74826 14.2448 9.66335 14.01 9.66544C13.7752 9.66753 13.5496 9.75648 13.3765 9.91513C12.7068 10.5298 11.6622 10.6308 10.9712 10.6975L10.8522 10.7091C10.7113 10.7225 10.5752 10.7674 10.454 10.8405C10.3328 10.9136 10.2297 11.013 10.1522 11.1315C10.0295 11.0594 9.89235 11.0157 9.75064 11.0035C9.60893 10.9914 9.46629 11.011 9.33317 11.0611V10.5945C9.3495 9.53802 9.78418 8.53119 10.5419 7.79481C11.2995 7.05844 12.3184 6.65265 13.3748 6.66646ZM10.5165 14.7331C10.5079 14.6024 10.4592 14.4775 10.3769 14.3755C10.2946 14.2735 10.1828 14.1995 10.0568 14.1635C9.95568 14.1381 9.8614 14.0906 9.78072 14.0245C9.70005 13.9584 9.63498 13.8753 9.59017 13.7811C9.33317 13.2635 9.33317 12.8948 9.33317 12.1601V11.9998C9.33317 11.9114 9.36829 11.8266 9.4308 11.7641C9.49331 11.7016 9.5781 11.6665 9.6665 11.6665C9.75491 11.6665 9.83969 11.7016 9.90221 11.7641C9.96472 11.8266 9.99984 11.9114 9.99984 11.9998V12.3331C9.99984 12.4215 10.035 12.5063 10.0975 12.5688C10.16 12.6313 10.2448 12.6665 10.3332 12.6665C10.4216 12.6665 10.5064 12.6313 10.5689 12.5688C10.6314 12.5063 10.6665 12.4215 10.6665 12.3331V11.6425C10.6671 11.5743 10.6932 11.5087 10.7396 11.4588C10.7861 11.4088 10.8495 11.378 10.9175 11.3725L11.0352 11.3611C11.8148 11.2855 12.9928 11.1718 13.8268 10.4065C13.8792 10.3598 13.9469 10.3339 14.017 10.3336C14.0872 10.3333 14.155 10.3586 14.2078 10.4048C14.8412 10.9598 15.7745 11.2801 17.0652 11.3835C17.1356 11.3866 17.2022 11.4163 17.2516 11.4665C17.3011 11.5167 17.3297 11.5837 17.3318 11.6541V12.3331C17.3318 12.4215 17.367 12.5063 17.4295 12.5688C17.492 12.6313 17.5768 12.6665 17.6652 12.6665C17.7536 12.6665 17.8384 12.6313 17.9009 12.5688C17.9634 12.5063 17.9985 12.4215 17.9985 12.3331V11.9998C17.9985 11.9114 18.0336 11.8266 18.0961 11.7641C18.1586 11.7016 18.2434 11.6665 18.3318 11.6665C18.4202 11.6665 18.505 11.7016 18.5675 11.7641C18.6301 11.8266 18.6652 11.9114 18.6652 11.9998V12.1601C18.6652 12.8935 18.6652 13.2635 18.4078 13.7781C18.3627 13.8731 18.2971 13.9569 18.2157 14.0235C18.1344 14.0901 18.0392 14.1377 17.9372 14.1631C17.8116 14.2 17.7005 14.2748 17.619 14.3771C17.5374 14.4795 17.4894 14.6045 17.4815 14.7351C17.4249 15.6208 17.0331 16.4516 16.3857 17.0586C15.7383 17.6656 14.8841 18.0033 13.9966 18.0029C13.1092 18.0024 12.2552 17.664 11.6084 17.0563C10.9616 16.4487 10.5706 15.6175 10.5148 14.7318L10.5165 14.7331ZM13.9998 18.6665C14.4536 18.6655 14.9041 18.5897 15.3332 18.4421V18.9448C15.2842 19.0561 15.0235 19.5055 13.9998 19.7301C12.9575 19.5015 12.7075 19.0411 12.6665 18.9475V18.4445C13.0959 18.5906 13.5463 18.6656 13.9998 18.6665ZM12.1332 19.3618C12.3339 19.6715 12.6182 19.918 12.9532 20.0728C12.6638 20.2659 12.436 20.538 12.2968 20.8568C11.9425 20.6961 11.3858 20.3508 11.3375 19.7511C11.55 19.5336 11.831 19.3961 12.1332 19.3618ZM7.33317 23.3198C7.33414 22.4396 7.68424 21.5957 8.30665 20.9733C8.92906 20.3509 9.77295 20.0008 10.6532 19.9998H10.6628C10.6628 21.0561 10.7548 23.9695 11.7428 25.3331H7.33317V23.3198ZM16.1935 25.3331C17.2362 23.9198 17.3368 21.0448 17.3368 19.9998H17.3465C17.9039 20.0018 18.4517 20.1445 18.9392 20.4148C18.7703 20.9382 18.6784 21.4833 18.6665 22.0331C18.6649 22.6882 18.8272 23.3334 19.1386 23.9097C19.45 24.4861 19.9007 24.9754 20.4495 25.3331H16.1935ZM25.0138 24.3845C24.3885 24.9958 23.5477 25.3365 22.6732 25.3331H22.6515C21.7748 25.3346 20.9333 24.9886 20.3113 24.3708C19.6893 23.753 19.3376 22.9138 19.3332 22.0371C19.3412 20.2945 20.6402 17.8038 22.1538 17.3371L23.1872 17.3341C24.7162 17.7968 26.0082 20.3101 26.0002 22.0751C25.9982 22.5064 25.91 22.9329 25.7406 23.3295C25.5712 23.7262 25.3241 24.0849 25.0138 24.3845Z" fill="white"/>
<path d="M22.67 20.9997C22.6115 20.9996 22.554 20.9842 22.5034 20.9549C22.4528 20.9256 22.4107 20.8835 22.3815 20.8328C22.3523 20.7821 22.3369 20.7246 22.337 20.6661C22.337 20.6076 22.3525 20.5502 22.3817 20.4995C22.411 20.4489 22.4531 20.4068 22.5038 20.3776C22.5544 20.3484 22.6119 20.333 22.6704 20.333C22.7289 20.333 22.7864 20.3484 22.837 20.3777C22.8877 20.4069 22.9297 20.449 22.959 20.4997C23.0051 20.5722 23.0775 20.6242 23.161 20.6446C23.2445 20.6651 23.3327 20.6525 23.4071 20.6094C23.4815 20.5664 23.5365 20.4963 23.5604 20.4137C23.5844 20.3312 23.5755 20.2425 23.5357 20.1663C23.4149 19.9633 23.2258 19.8097 23.0023 19.733V19.6663C23.0023 19.5779 22.9672 19.4932 22.9047 19.4306C22.8422 19.3681 22.7574 19.333 22.669 19.333C22.5806 19.333 22.4958 19.3681 22.4333 19.4306C22.3708 19.4932 22.3357 19.5779 22.3357 19.6663V19.7277C22.1134 19.8059 21.9261 19.9603 21.8068 20.1635C21.6875 20.3667 21.6439 20.6055 21.6839 20.8377C21.7238 21.0699 21.8446 21.2805 22.0249 21.4322C22.2052 21.5838 22.4334 21.6668 22.669 21.6663C22.7275 21.6663 22.785 21.6817 22.8357 21.711C22.8863 21.7403 22.9284 21.7823 22.9577 21.833C22.9869 21.8837 23.0023 21.9412 23.0023 21.9997C23.0023 22.0582 22.9869 22.1157 22.9577 22.1663C22.9284 22.217 22.8863 22.2591 22.8357 22.2883C22.785 22.3176 22.7275 22.333 22.669 22.333C22.6105 22.333 22.553 22.3176 22.5023 22.2884C22.4517 22.2591 22.4096 22.217 22.3803 22.1663C22.3347 22.0926 22.2622 22.0396 22.1782 22.0185C22.0941 21.9973 22.0052 22.0097 21.9301 22.0531C21.8551 22.0964 21.7999 22.1673 21.7762 22.2507C21.7525 22.334 21.7623 22.4234 21.8033 22.4997C21.9241 22.7028 22.1131 22.8563 22.3367 22.933V22.9997C22.3367 23.0881 22.3718 23.1729 22.4343 23.2354C22.4968 23.2979 22.5816 23.333 22.67 23.333C22.7584 23.333 22.8432 23.2979 22.9057 23.2354C22.9682 23.1729 23.0033 23.0881 23.0033 22.9997V22.9383C23.2256 22.8601 23.4129 22.7057 23.5322 22.5025C23.6515 22.2993 23.695 22.0605 23.6551 21.8283C23.6152 21.5961 23.4944 21.3855 23.3141 21.2338C23.1338 21.0822 22.9056 20.9992 22.67 20.9997Z" fill="white"/>
</g>
<defs>
<clipPath id="clip0_3373_2338">
<rect width="20" height="20" fill="white" transform="translate(6.6665 6)"/>
</clipPath>
</defs>
</svg>
