<svg width="60" height="60" viewBox="0 0 60 60" fill="none" xmlns="http://www.w3.org/2000/svg">
<rect width="60" height="60" rx="30" fill="white"/>
<g clip-path="url(#clip0_3384_2492)">
<path d="M30.6875 37.3868L32.9248 35.1621V35.1558L30.6875 37.3868Z" fill="#2DBDC5"/>
<mask id="mask0_3384_2492" style="mask-type:luminance" maskUnits="userSpaceOnUse" x="2" y="18" width="158" height="24">
<path d="M159.283 18.0449H2.39746V41.9562H159.283V18.0449Z" fill="white"/>
</mask>
<g mask="url(#mask0_3384_2492)">
<path d="M19.5889 27.1009L20.9313 28.4433L24.6813 32.1932L26.2569 33.7688L26.2632 33.7751V33.7688L27.8388 32.1932L30.0068 30.0252L30.6874 29.3382L31.5887 28.4433L32.9248 27.1009L38.2188 21.8069V18.6431L35.9877 20.8804L32.9248 23.9434L30.6874 26.1744L30.0068 26.8614L28.4312 28.4433L26.2632 30.6113L14.2949 18.6431V21.8069L16.5323 24.0442L19.5889 27.1009Z" fill="#7EBD4C"/>
<path d="M35.9873 39.5867V41.8241H38.2184V34.1919L35.9873 36.4292V39.5867Z" fill="#7EBD4C"/>
<path d="M47.2438 18.3285L46.3615 18.5617L43.2985 19.3621L44.4266 20.4902L44.4329 20.4966L42.58 22.3432L40.7208 24.2024L39.8385 25.0847L38.2188 26.7044L35.9877 28.9291V28.9355L32.9248 31.9921V31.9984L30.6874 34.2295L26.2632 38.66L16.5323 28.9291L14.2949 26.6981V41.8238H16.5323V32.0929L24.6813 40.2419L26.2632 41.8238L27.8388 40.2419L30.6874 37.387L32.9248 35.1559V35.1622L39.4856 28.6014L40.7208 27.3599L44.1619 23.9251L45.8888 22.1982L46.0148 22.0785L47.0232 23.0868L47.2438 22.2297L47.7354 20.3453L48.3341 18.0449L47.2438 18.3285Z" fill="#002654"/>
</g>
</g>
<defs>
<clipPath id="clip0_3384_2492">
<rect width="37.6744" height="37.6744" fill="white" transform="translate(11.1621 11.1626)"/>
</clipPath>
</defs>
</svg>
