<svg width="33" height="33" viewBox="0 0 33 33" fill="none" xmlns="http://www.w3.org/2000/svg">
<rect width="33" height="33" rx="4" fill="#0D9488"/>
<g clip-path="url(#clip0_3373_2365)">
<path d="M18.2607 19.2764H22.3269C22.7076 19.2764 23.0174 18.9666 23.0174 18.5859V16.2757C23.0174 15.895 22.7076 15.5852 22.3269 15.5852H18.2607C17.8799 15.5852 17.5701 15.895 17.5701 16.2757V18.5859C17.5702 18.9666 17.8799 19.2764 18.2607 19.2764ZM18.1952 16.2758C18.1952 16.2403 18.2252 16.2103 18.2607 16.2103H22.3269C22.3624 16.2103 22.3924 16.2403 22.3924 16.2758V18.5859C22.3924 18.6214 22.3624 18.6514 22.3269 18.6514H18.2607C18.2252 18.6514 18.1951 18.6214 18.1951 18.5859V16.2758H18.1952ZM26.186 23.3559H24.9612V14.0954C25.8835 13.6904 26.5295 12.7687 26.5295 11.6985C26.5295 11.6482 26.5174 11.5986 26.4941 11.554L23.9546 6.68379C23.8335 6.45133 23.6046 6.3125 23.3423 6.3125H10.6576C10.3954 6.3125 10.1666 6.45133 10.0454 6.68375L7.50582 11.5541C7.48254 11.5987 7.47043 11.6482 7.47043 11.6986C7.47043 12.7687 8.11648 13.6904 9.03879 14.0954V23.3559H7.81402C7.5375 23.3559 7.3125 23.5809 7.3125 23.8574V25.186C7.3125 25.4625 7.5375 25.6875 7.81402 25.6875H26.186C26.4625 25.6875 26.6875 25.4625 26.6875 25.186V23.8574C26.6875 23.5809 26.4625 23.3559 26.186 23.3559ZM23.9128 13.6903C22.9209 13.6903 22.0962 12.9613 21.9458 12.0111H25.8795C25.729 12.9613 24.9047 13.6903 23.9128 13.6903ZM17.3125 6.9375H20.0306L21.203 11.3861H17.3125V6.9375ZM16.6875 11.3861H12.797L13.9694 6.9375H16.6875V11.3861ZM16.6628 12.0111C16.5123 12.9614 15.6877 13.6903 14.6957 13.6903C13.7038 13.6903 12.8791 12.9613 12.7287 12.0111H16.6628ZM21.2713 12.0111C21.1209 12.9614 20.2962 13.6903 19.3043 13.6903C18.3124 13.6903 17.4877 12.9613 17.3373 12.0111H21.2713ZM23.4005 6.97273L25.7017 11.386H21.8494L20.677 6.9375H23.3423C23.3706 6.9375 23.3874 6.9477 23.4005 6.97273ZM10.5995 6.9727C10.6126 6.9477 10.6294 6.9375 10.6576 6.9375H13.323L12.1507 11.3861H8.29828L10.5995 6.9727ZM8.12051 12.0111H12.0543C11.9038 12.9614 11.0791 13.6903 10.0872 13.6903C9.09531 13.6903 8.27094 12.9613 8.12051 12.0111ZM9.66379 14.2805C9.80168 14.3031 9.94301 14.3153 10.0872 14.3153C11.082 14.3153 11.9489 13.7573 12.3914 12.9378C12.8339 13.7573 13.7009 14.3153 14.6957 14.3153C15.6905 14.3153 16.5575 13.7573 17 12.9378C17.4425 13.7573 18.3094 14.3153 19.3042 14.3153C20.299 14.3153 21.166 13.7573 21.6085 12.9378C22.051 13.7573 22.9179 14.3153 23.9127 14.3153C24.0569 14.3153 24.1982 14.3031 24.3361 14.2805V23.3559H15.9792V16.2758C15.9792 15.895 15.6694 15.5853 15.2886 15.5853H11.8357C11.4549 15.5853 11.1452 15.895 11.1452 16.2758V23.3559H9.66379V14.2805ZM15.3542 23.3559H11.7702V16.2758C11.7702 16.2403 11.8002 16.2103 11.8357 16.2103H15.2886C15.3241 16.2103 15.3542 16.2403 15.3542 16.2758V23.3559ZM26.0625 25.0625H7.9375V23.9809H26.0625V25.0625ZM15.0903 19.6582V20.286C15.0903 20.4586 14.9504 20.5985 14.7778 20.5985C14.6052 20.5985 14.4653 20.4586 14.4653 20.286V19.6582C14.4653 19.4856 14.6052 19.3457 14.7778 19.3457C14.9504 19.3457 15.0903 19.4856 15.0903 19.6582Z" fill="white"/>
</g>
<defs>
<clipPath id="clip0_3373_2365">
<rect width="20" height="20" fill="white" transform="translate(7 6)"/>
</clipPath>
</defs>
</svg>
