<svg width="34" height="33" viewBox="0 0 34 33" fill="none" xmlns="http://www.w3.org/2000/svg">
<rect x="0.333496" width="33" height="33" rx="4" fill="#9333EA"/>
<g clip-path="url(#clip0_3373_2351)">
<path d="M25.0291 9.99045C25.342 9.75316 25.5724 9.42363 25.688 9.04836C25.8035 8.67308 25.7983 8.271 25.6732 7.89883C25.548 7.52666 25.3091 7.20318 24.9903 6.97402C24.6714 6.74486 24.2887 6.62158 23.896 6.62158C23.5033 6.62158 23.1206 6.74486 22.8017 6.97402C22.4829 7.20318 22.244 7.52666 22.1188 7.89883C21.9937 8.271 21.9885 8.67308 22.104 9.04836C22.2196 9.42363 22.45 9.75316 22.7629 9.99045C22.2639 10.2105 21.8395 10.5707 21.5414 11.0273C21.2433 11.4839 21.0842 12.0173 21.0835 12.5626V14.4376C21.0835 14.5033 21.1041 14.5672 21.1425 14.6204C21.1808 14.6737 21.235 14.7135 21.2972 14.7342L22.021 14.9755V17.5626C22.021 17.6455 22.0539 17.725 22.1125 17.7836C22.1711 17.8422 22.2506 17.8751 22.3335 17.8751H25.4585C25.5414 17.8751 25.6209 17.8422 25.6795 17.7836C25.7381 17.725 25.771 17.6455 25.771 17.5626V14.9755L26.4947 14.7342C26.557 14.7135 26.6111 14.6737 26.6495 14.6204C26.6879 14.5672 26.7085 14.5033 26.7085 14.4376V12.5626C26.7078 12.0173 26.5487 11.4839 26.2506 11.0273C25.9525 10.5707 25.5281 10.2105 25.0291 9.99045ZM22.646 8.50014C22.646 8.25291 22.7193 8.01124 22.8567 7.80568C22.994 7.60012 23.1892 7.4399 23.4176 7.34529C23.646 7.25068 23.8974 7.22593 24.1399 7.27416C24.3823 7.32239 24.6051 7.44144 24.7799 7.61626C24.9547 7.79107 25.0737 8.0138 25.122 8.25628C25.1702 8.49875 25.1455 8.75009 25.0508 8.9785C24.9562 9.2069 24.796 9.40213 24.5905 9.53948C24.3849 9.67683 24.1432 9.75014 23.896 9.75014C23.5645 9.75014 23.2465 9.61845 23.0121 9.38402C22.7777 9.1496 22.646 8.83166 22.646 8.50014ZM26.0835 14.2123L25.3597 14.4536C25.2975 14.4743 25.2433 14.5141 25.205 14.5673C25.1666 14.6206 25.146 14.6845 25.146 14.7501V17.2501H22.646V14.7501C22.646 14.6845 22.6254 14.6206 22.587 14.5673C22.5486 14.5141 22.4945 14.4743 22.4322 14.4536L21.7085 14.2123V12.5626C21.7085 11.9825 21.939 11.4261 22.3492 11.0158C22.7594 10.6056 23.3158 10.3751 23.896 10.3751C24.4762 10.3751 25.0326 10.6056 25.4428 11.0158C25.853 11.4261 26.0835 11.9825 26.0835 12.5626V14.2123Z" fill="white"/>
<path d="M8.17225 14.7342L8.896 14.9755V17.5626C8.896 17.6455 8.92892 17.725 8.98753 17.7836C9.04613 17.8422 9.12562 17.8751 9.2085 17.8751H12.3335C12.4164 17.8751 12.4959 17.8422 12.5545 17.7836C12.6131 17.725 12.646 17.6455 12.646 17.5626V14.9755L13.3697 14.7342C13.432 14.7135 13.4861 14.6737 13.5245 14.6204C13.5629 14.5672 13.5835 14.5033 13.5835 14.4376V12.5626C13.5828 12.0173 13.4237 11.4839 13.1256 11.0273C12.8275 10.5707 12.4031 10.2105 11.9041 9.99045C12.217 9.75316 12.4474 9.42363 12.563 9.04836C12.6785 8.67308 12.6733 8.271 12.5482 7.89883C12.423 7.52666 12.1841 7.20318 11.8653 6.97402C11.5464 6.74486 11.1637 6.62158 10.771 6.62158C10.3783 6.62158 9.99558 6.74486 9.67673 6.97402C9.35788 7.20318 9.11901 7.52666 8.99383 7.89883C8.86865 8.271 8.86347 8.67308 8.97902 9.04836C9.09457 9.42363 9.32503 9.75316 9.63787 9.99045C9.13888 10.2105 8.71453 10.5707 8.4164 11.0273C8.11827 11.4839 7.95919 12.0173 7.9585 12.5626V14.4376C7.95848 14.5033 7.97912 14.5672 8.01748 14.6204C8.05585 14.6737 8.10999 14.7135 8.17225 14.7342ZM9.521 8.50014C9.521 8.25291 9.59431 8.01124 9.73166 7.80568C9.86901 7.60012 10.0642 7.4399 10.2926 7.34529C10.521 7.25068 10.7724 7.22593 11.0149 7.27416C11.2573 7.32239 11.4801 7.44144 11.6549 7.61626C11.8297 7.79107 11.9487 8.0138 11.997 8.25628C12.0452 8.49875 12.0205 8.75009 11.9258 8.9785C11.8312 9.2069 11.671 9.40213 11.4655 9.53948C11.2599 9.67683 11.0182 9.75014 10.771 9.75014C10.4395 9.75014 10.1215 9.61845 9.88711 9.38402C9.65269 9.1496 9.521 8.83166 9.521 8.50014ZM8.5835 12.5626C8.5835 11.9825 8.81396 11.4261 9.2242 11.0158C9.63444 10.6056 10.1908 10.3751 10.771 10.3751C11.3512 10.3751 11.9076 10.6056 12.3178 11.0158C12.728 11.4261 12.9585 11.9825 12.9585 12.5626V14.2123L12.2347 14.4536C12.1725 14.4743 12.1183 14.5141 12.08 14.5673C12.0416 14.6206 12.021 14.6845 12.021 14.7501V17.2501H9.521V14.7501C9.52101 14.6845 9.50037 14.6206 9.46201 14.5673C9.42364 14.5141 9.3695 14.4743 9.30725 14.4536L8.5835 14.2123V12.5626Z" fill="white"/>
<path d="M25.771 18.8126C25.5778 18.8134 25.3895 18.8739 25.232 18.9858C25.0745 19.0977 24.9554 19.2555 24.891 19.4376H22.5953C22.3432 18.6189 21.1003 17.9745 19.2085 17.6973V17.4755L19.9322 17.2342C19.9945 17.2135 20.0486 17.1737 20.087 17.1204C20.1254 17.0672 20.146 17.0033 20.146 16.9376V15.0626C20.1453 14.5173 19.9862 13.9839 19.6881 13.5273C19.3899 13.0707 18.9656 12.7105 18.4666 12.4905C18.7794 12.2532 19.0099 11.9236 19.1254 11.5484C19.241 11.1731 19.2358 10.771 19.1106 10.3988C18.9855 10.0267 18.7466 9.70318 18.4277 9.47402C18.1089 9.24486 17.7261 9.12158 17.3335 9.12158C16.9408 9.12158 16.5581 9.24486 16.2392 9.47402C15.9204 9.70318 15.6815 10.0267 15.5563 10.3988C15.4311 10.771 15.4259 11.1731 15.5415 11.5484C15.6571 11.9236 15.8875 12.2532 16.2003 12.4905C15.7014 12.7105 15.277 13.0707 14.9789 13.5273C14.6807 13.9839 14.5217 14.5173 14.521 15.0626V16.9376C14.521 17.0033 14.5416 17.0672 14.58 17.1204C14.6183 17.1737 14.6725 17.2135 14.7347 17.2342L15.4585 17.4755V17.6973C13.5666 17.9745 12.3238 18.6189 12.0716 19.4376H9.77597C9.70226 19.2291 9.5572 19.0534 9.36645 18.9415C9.17569 18.8296 8.95152 18.7887 8.73356 18.8261C8.51559 18.8635 8.31786 18.9768 8.17532 19.1459C8.03277 19.315 7.95459 19.529 7.95459 19.7501C7.95459 19.9713 8.03277 20.1853 8.17532 20.3544C8.31786 20.5235 8.51559 20.6367 8.73356 20.6741C8.95152 20.7115 9.17569 20.6707 9.36645 20.5588C9.5572 20.4469 9.70226 20.2711 9.77597 20.0626H12.0725C12.2528 20.6564 12.9397 21.1151 13.8735 21.4305L11.5297 23.3055C11.3933 23.2291 11.2398 23.1886 11.0835 23.1876C10.8981 23.1876 10.7168 23.2426 10.5626 23.3456C10.4085 23.4487 10.2883 23.5951 10.2173 23.7664C10.1464 23.9377 10.1278 24.1262 10.164 24.308C10.2002 24.4899 10.2894 24.6569 10.4206 24.7881C10.5517 24.9192 10.7187 25.0085 10.9006 25.0446C11.0824 25.0808 11.2709 25.0622 11.4422 24.9913C11.6135 24.9203 11.76 24.8002 11.863 24.646C11.966 24.4918 12.021 24.3106 12.021 24.1251C12.0209 24.0032 11.9968 23.8825 11.95 23.7698L14.6119 21.6401C15.4031 21.8182 16.2102 21.916 17.021 21.932V23.557C16.8125 23.6307 16.6367 23.7758 16.5248 23.9665C16.4129 24.1573 16.3721 24.3815 16.4095 24.5994C16.4469 24.8174 16.5601 25.0151 16.7292 25.1577C16.8983 25.3002 17.1123 25.3784 17.3335 25.3784C17.5546 25.3784 17.7687 25.3002 17.9377 25.1577C18.1068 25.0151 18.2201 24.8174 18.2575 24.5994C18.2949 24.3815 18.254 24.1573 18.1421 23.9665C18.0302 23.7758 17.8545 23.6307 17.646 23.557V21.932C18.5388 21.9157 19.4268 21.7977 20.2928 21.5805L23.0294 23.7698C22.9826 23.8825 22.9585 24.0032 22.9585 24.1251C22.9585 24.3106 23.0135 24.4918 23.1165 24.646C23.2195 24.8002 23.3659 24.9203 23.5372 24.9913C23.7085 25.0622 23.897 25.0808 24.0789 25.0446C24.2607 25.0085 24.4278 24.9192 24.5589 24.7881C24.69 24.6569 24.7793 24.4899 24.8155 24.308C24.8516 24.1262 24.8331 23.9377 24.7621 23.7664C24.6912 23.5951 24.571 23.4487 24.4168 23.3456C24.2626 23.2426 24.0814 23.1876 23.896 23.1876C23.7397 23.1888 23.5863 23.2294 23.45 23.3058L21.0107 21.3542C21.8338 21.0417 22.4285 20.6095 22.5944 20.0626H24.891C24.9485 20.2243 25.0494 20.3669 25.1826 20.4751C25.3158 20.5833 25.4761 20.6527 25.6461 20.6759C25.8161 20.6991 25.9892 20.6751 26.1465 20.6066C26.3038 20.5381 26.4392 20.4276 26.538 20.2874C26.6367 20.1471 26.695 19.9823 26.7065 19.8112C26.718 19.64 26.6822 19.4689 26.603 19.3167C26.5238 19.1645 26.4044 19.037 26.2576 18.9481C26.1109 18.8592 25.9425 18.8123 25.771 18.8126ZM8.89597 20.0626C8.83417 20.0626 8.77375 20.0443 8.72236 20.01C8.67097 19.9756 8.63091 19.9268 8.60726 19.8697C8.58361 19.8126 8.57742 19.7498 8.58948 19.6892C8.60154 19.6286 8.6313 19.5729 8.675 19.5292C8.71871 19.4855 8.77439 19.4557 8.83501 19.4436C8.89563 19.4316 8.95846 19.4378 9.01556 19.4614C9.07266 19.4851 9.12147 19.5251 9.15581 19.5765C9.19015 19.6279 9.20847 19.6883 9.20847 19.7501C9.20847 19.833 9.17555 19.9125 9.11694 19.9711C9.05834 20.0297 8.97885 20.0626 8.89597 20.0626ZM11.0835 24.4376C11.0217 24.4376 10.9612 24.4193 10.9099 24.385C10.8585 24.3506 10.8184 24.3018 10.7948 24.2447C10.7711 24.1876 10.7649 24.1248 10.777 24.0642C10.789 24.0036 10.8188 23.9479 10.8625 23.9042C10.9062 23.8605 10.9619 23.8307 11.0225 23.8186C11.0831 23.8066 11.146 23.8128 11.2031 23.8364C11.2602 23.8601 11.309 23.9001 11.3433 23.9515C11.3776 24.0029 11.396 24.0633 11.396 24.1251C11.396 24.208 11.363 24.2875 11.3044 24.3461C11.2458 24.4047 11.1664 24.4376 11.0835 24.4376ZM23.896 23.8126C23.9578 23.8126 24.0182 23.831 24.0696 23.8653C24.121 23.8996 24.161 23.9485 24.1847 24.0056C24.2083 24.0627 24.2145 24.1255 24.2025 24.1861C24.1904 24.2467 24.1606 24.3024 24.1169 24.3461C24.0732 24.3898 24.0176 24.4196 23.9569 24.4316C23.8963 24.4437 23.8335 24.4375 23.7764 24.4139C23.7193 24.3902 23.6705 24.3501 23.6361 24.2988C23.6018 24.2474 23.5835 24.1869 23.5835 24.1251C23.5835 24.0423 23.6164 23.9628 23.675 23.9042C23.7336 23.8456 23.8131 23.8126 23.896 23.8126ZM16.0835 11.0001C16.0835 10.7529 16.1568 10.5112 16.2941 10.3057C16.4315 10.1001 16.6267 9.9399 16.8551 9.84529C17.0835 9.75068 17.3349 9.72593 17.5773 9.77416C17.8198 9.82239 18.0425 9.94144 18.2174 10.1163C18.3922 10.2911 18.5112 10.5138 18.5595 10.7563C18.6077 10.9988 18.5829 11.2501 18.4883 11.4785C18.3937 11.7069 18.2335 11.9021 18.0279 12.0395C17.8224 12.1768 17.5807 12.2501 17.3335 12.2501C17.002 12.2501 16.684 12.1184 16.4496 11.884C16.2152 11.6496 16.0835 11.3317 16.0835 11.0001ZM15.146 16.7123V15.0626C15.146 14.4825 15.3764 13.9261 15.7867 13.5158C16.1969 13.1056 16.7533 12.8751 17.3335 12.8751C17.9136 12.8751 18.47 13.1056 18.8803 13.5158C19.2905 13.9261 19.521 14.4825 19.521 15.0626V16.7123L18.7972 16.9536C18.735 16.9743 18.6808 17.0141 18.6425 17.0673C18.6041 17.1206 18.5835 17.1845 18.5835 17.2501V19.7501H16.0835V17.2501C16.0835 17.1845 16.0629 17.1206 16.0245 17.0673C15.9861 17.0141 15.932 16.9743 15.8697 16.9536L15.146 16.7123ZM17.3335 24.7501C17.2717 24.7501 17.2112 24.7318 17.1599 24.6975C17.1085 24.6631 17.0684 24.6143 17.0448 24.5572C17.0211 24.5001 17.0149 24.4373 17.027 24.3767C17.039 24.3161 17.0688 24.2604 17.1125 24.2167C17.1562 24.173 17.2119 24.1432 17.2725 24.1311C17.3331 24.1191 17.396 24.1253 17.4531 24.1489C17.5102 24.1726 17.559 24.2126 17.5933 24.264C17.6276 24.3154 17.646 24.3758 17.646 24.4376C17.646 24.5205 17.613 24.6 17.5544 24.6586C17.4958 24.7172 17.4164 24.7501 17.3335 24.7501ZM17.3335 21.3126C14.6507 21.3126 12.646 20.4876 12.646 19.7501C12.646 19.2573 13.6291 18.6139 15.4585 18.3283V20.0626C15.4585 20.1455 15.4914 20.225 15.55 20.2836C15.6086 20.3422 15.6881 20.3751 15.771 20.3751H18.896C18.9789 20.3751 19.0583 20.3422 19.1169 20.2836C19.1755 20.225 19.2085 20.1455 19.2085 20.0626V18.3283C21.0378 18.6139 22.021 19.2573 22.021 19.7501C22.021 20.4876 20.0163 21.3126 17.3335 21.3126ZM25.771 20.0626C25.7092 20.0626 25.6487 20.0443 25.5974 20.01C25.546 19.9756 25.5059 19.9268 25.4823 19.8697C25.4586 19.8126 25.4524 19.7498 25.4645 19.6892C25.4765 19.6286 25.5063 19.5729 25.55 19.5292C25.5937 19.4855 25.6494 19.4557 25.71 19.4436C25.7706 19.4316 25.8335 19.4378 25.8906 19.4614C25.9477 19.4851 25.9965 19.5251 26.0308 19.5765C26.0651 19.6279 26.0835 19.6883 26.0835 19.7501C26.0835 19.833 26.0506 19.9125 25.9919 19.9711C25.9333 20.0297 25.8539 20.0626 25.771 20.0626Z" fill="white"/>
</g>
<defs>
<clipPath id="clip0_3373_2351">
<rect width="20" height="20" fill="white" transform="translate(7.3335 6)"/>
</clipPath>
</defs>
</svg>
